<?xml version="1.0" encoding="utf-8"?>
<!-- Generator: Adobe Illustrator 16.0.0, SVG Export Plug-In . SVG Version: 6.00 Build 0)  -->
<!DOCTYPE svg PUBLIC "-//W3C//DTD SVG 1.1//EN" "http://www.w3.org/Graphics/SVG/1.1/DTD/svg11.dtd">
<svg version="1.1" xmlns="http://www.w3.org/2000/svg" xmlns:xlink="http://www.w3.org/1999/xlink" x="0px" y="0px" width="512px"
	 height="242px" viewBox="0 0 512 242" style="enable-background:new 0 0 512 242;" xml:space="preserve">
<g id="레이어_1">
</g>
<g id="ci">
	<path style="fill:#00469A;" d="M455.955,99.412c3.714,0,8.731-0.626,11.242-1.359l2.144-12.391h-6.799l-1.307,7.32
		c-1.831,0.261-3.243,0.313-4.18,0.313c-2.668,0-3.243-0.784-3.243-2.145c0-0.471,0.052-0.835,0.104-1.151l1.728-9.776
		c0.364-2.143,1.513-2.77,4.18-2.77c2.611,0,6.171,0.367,9.255,0.941l1.257-5.645c-3.033-0.996-6.904-1.569-10.251-1.569
		c-7.839,0-10.766,1.985-11.918,8.47l-1.937,10.874c-0.103,0.678-0.155,1.307-0.155,1.882
		C446.075,96.692,449.058,99.412,455.955,99.412"/>
	<polygon style="fill:#00469A;" points="430.497,98.889 439.541,98.889 444.35,71.703 437.239,71.703 434.206,88.747 
		427.987,71.703 418.943,71.703 414.185,98.889 421.295,98.889 424.274,81.897 	"/>
	<path style="fill:#00469A;" d="M396.67,99.412c9.515,0,12.234-3.137,13.177-8.522l3.396-19.187h-7.528l-3.188,18.088
		c-0.416,2.3-1.83,3.086-4.704,3.086c-3.084,0-4.077-0.786-3.714-2.877l3.243-18.296h-7.529l-3.344,18.874
		c-0.105,0.522-0.16,1.099-0.16,1.671C386.317,95.91,388.671,99.412,396.67,99.412"/>
	<path style="fill:#00469A;" d="M368.492,99.412c9.881,0,12.39-3.085,13.645-10.248c0.261-1.412,0.417-2.613,0.417-3.71
		c0-3.556-1.773-5.543-8.26-7.164c-4.076-1.045-5.122-1.306-5.122-2.98c0-0.472,0.104-1.098,0.209-1.882
		c0.471-2.771,1.203-3.293,4.969-3.293c2.352,0,6.322,0.471,9.409,1.204l1.357-6.432c-3.084-0.785-7.475-1.359-10.141-1.359
		c-9.462,0-11.555,1.569-13.07,9.306c-0.261,1.412-0.42,2.666-0.42,3.765c0,4.075,2.146,6.115,7.947,7.58
		c4.234,1.097,5.281,1.516,5.281,3.084c0,0.47-0.054,1.1-0.209,1.831c-0.522,3.03-1.463,3.817-5.542,3.817
		c-3.349,0-6.117-0.733-9.461-1.728l-1.676,5.91C360.547,98.418,365.614,99.412,368.492,99.412"/>
	<path style="fill:#00469A;" d="M340.83,99.314c3.713,0,8.733-0.627,11.242-1.359l2.143-12.391h-6.795l-1.309,7.319
		c-1.828,0.262-3.24,0.314-4.185,0.314c-2.664,0-3.239-0.782-3.239-2.143c0-0.47,0.051-0.835,0.105-1.151l1.726-9.776
		c0.365-2.143,1.514-2.77,4.182-2.77c2.614,0,6.169,0.366,9.254,0.939l1.255-5.647c-3.032-0.992-6.9-1.567-10.249-1.567
		c-7.84,0-10.768,1.986-11.918,8.47l-1.934,10.874c-0.104,0.68-0.159,1.307-0.159,1.883
		C330.949,96.596,333.933,99.314,340.83,99.314"/>
	<polygon style="fill:#00469A;" points="315.371,98.792 324.416,98.792 329.224,71.607 322.113,71.607 319.085,88.648 
		312.862,71.607 303.818,71.607 299.059,98.792 306.171,98.792 309.15,81.8 	"/>
	<path style="fill:#00469A;" d="M281.547,99.314c9.514,0,12.234-3.137,13.175-8.521l3.396-19.187h-7.528L287.4,89.695
		c-0.416,2.301-1.828,3.085-4.706,3.085c-3.083,0-4.075-0.785-3.709-2.877l3.239-18.297h-7.528l-3.345,18.873
		c-0.104,0.522-0.158,1.097-0.158,1.671C271.193,95.813,273.546,99.314,281.547,99.314"/>
	<polygon style="fill:#00469A;" points="259.957,91.681 272.658,71.607 264.399,71.607 257.453,84.102 254.105,71.607 
		246.577,71.607 252.539,91.055 251.181,98.792 258.703,98.792 	"/>
	<polygon style="fill:#00469A;" points="216.683,98.792 224.367,98.792 230.484,63.975 222.797,63.975 	"/>
	<polygon style="fill:#00469A;" points="235.135,98.792 243.554,98.792 236.652,81.016 249.775,63.975 240.365,63.975 
		228.183,81.016 	"/>
</g>
<g id="Layer_1">
	<path style="fill:#3AA1C7;" d="M494.57,49.816c0-0.871-0.432-1.514-1.093-1.963l-0.458-0.248c0,0-11.927-7.282-24.973-7.899
		c0,0-4.96-11.034-16.887-20.351l-0.25-0.203c-0.505-0.294-0.768-0.395-1.327-0.395c-0.936,0-1.557,0.518-2.091,1.375l-0.019,0.005
		l-8.595,12.032c-0.62,0.844-1.115,1.57-1.115,2.336c0,0.9,0.713,1.553,1.288,2.047c1.809,1.551,11.104,8.378,9.815,27.021
		c-0.029,0.429-0.163,0.835-0.163,1.183c0,1.264,0.895,2.139,2.152,2.028c0.862-0.074,0.872-0.224,1.482-0.572l0.556-0.375
		c0,0,13.399-9.339,28.328-0.842l0.271,0.172c0.548,0.296,0.846,0.422,1.17,0.445c0.869,0.064,1.466-0.442,2.014-1.219l9.067-12.831
		C494.2,50.837,494.57,50.522,494.57,49.816"/>
	<path style="fill:#CACCCD;" d="M468.047,39.707c-10.129-0.704-16.59-4.527-25.646,0.076c6.038,6.809,7.192,18.423,6.148,24.695
		c-0.161,0.976,0.738,3.015,2.947,2.12l0.261-0.098c7.34-5.115,16.839-6.559,25.383-3.517c0.879-10.126-4.695-14.237-9.142-23.367"
		/>
	<path style="fill:#00469B;" d="M449.277,66.353c0.53,0.482,1.173,0.609,2.266,0.334l0.363-0.168
		c7.339-5.113,16.735-6.488,25.28-3.446c0.874-10.106-4.676-14.368-9.14-23.366L449.277,66.353z"/>
	<linearGradient id="SVGID_1_" gradientUnits="userSpaceOnUse" x1="17.3096" y1="159.3232" x2="494" y2="159.3232">
		<stop  offset="0" style="stop-color:#7B5CFF"/>
		<stop  offset="1" style="stop-color:#4AC7E9"/>
	</linearGradient>
	<path style="fill:url(#SVGID_1_);" d="M268.777,213.723h-45.805c-3.577,0-6.478-1.114-8.707-3.344
		c-2.229-2.228-3.342-5.128-3.342-8.706v-42.176c0-3.576,1.114-6.477,3.342-8.708c2.229-2.227,5.13-3.341,8.707-3.341h45.805v14.855
		H227.43v10.564h40.029v13.618H227.43v12.381h41.348V213.723z M311.416,144.823v18.43h-23.004c-1.761,0-3.355-0.197-4.784,0.352
		c-1.433,0.55-2.683,1.098-3.758,2.114c-1.069,1.019-1.958,2.124-2.535,3.556c-0.576,1.428-0.931,2.88-0.931,4.584v28.144
		c0,1.761,0.354,3.356,0.931,4.787c0.577,1.431,1.433,2.655,2.504,3.672c1.074,1.019,2.34,1.923,3.771,2.5
		c1.431,0.579,3.042,0.975,4.803,0.975h38.669v-69.112H311.416z M311.416,199.191h-19.352v-22.116h19.352V199.191z M351.549,157.682
		h-16.176v-13.123h16.176V157.682z M351.549,213.723h-16.176v-51.419h16.176V213.723z M395.292,213.723h-16.425
		c-1.761,0-3.355-0.276-4.787-0.827c-1.431-0.551-2.681-1.334-3.753-2.351c-1.074-1.019-1.899-2.229-2.478-3.632
		s-0.865-2.984-0.865-4.745V176.83h-9.162v-14.526h9.162v-14.855h16.175v14.855h12.133v14.526h-12.133v23.355h12.133V213.723z
		 M449.954,169.154c-0.576-1.431-1.271-2.655-2.344-3.673c-1.073-1.017-2.275-1.327-3.731-1.877
		c-1.459-0.549-2.976-0.352-4.681-0.352h-25.999c-1.76,0-3.355-0.197-4.786,0.352c-1.432,0.55-2.682,1.098-3.754,2.114
		c-1.074,1.019-1.693,2.124-2.273,3.556c-0.576,1.428-0.663,2.88-0.663,4.584v28.144c0,1.761,0.087,3.356,0.663,4.787
		c0.58,1.431,1.3,2.655,2.375,3.672c1.074,1.019,2.272,1.923,3.704,2.5c1.43,0.579,2.975,0.975,4.734,0.975h25.999
		c1.705,0,3.287-0.396,4.746-0.975c1.456-0.577,2.723-1.428,3.796-2.446c1.073-1.018,1.638-2.269,2.214-3.699
		c0.58-1.429,0.607-3.053,0.607-4.813v-28.144C450.562,172.154,450.534,170.586,449.954,169.154z M434.896,199.191h-18.43v-22.116
		h18.43V199.191z M475.346,213.723H459.17v-39.864c0-1.704,0.29-3.272,0.868-4.704c0.577-1.431,1.401-2.655,2.475-3.673
		c1.073-1.017,2.323-1.802,3.755-2.352c1.431-0.55,3.027-0.826,4.788-0.826H494v14.526h-18.654V213.723z M78.867,104.711H56.868
		L17.31,213.936h25.807l9.079-27.188l31.183-0.039l9.092,27.227h25.647L78.867,104.711z M77.052,167.813l-18.006-0.039l8.869-26.783
		L77.052,167.813z M173.489,125.674v-20.962h-51.854v20.962h14.343v63.989h-14.343v24.272h51.854v-24.272h-14.343v-63.989H173.489z"
		/>
</g>
</svg>
